<mxfile host="app.diagrams.net" modified="2024-05-22T08:37:18.059Z" agent="Mozilla/5.0 (Windows NT 10.0; Win64; x64) AppleWebKit/537.36 (KHTML, like Gecko) Chrome/125.0.0.0 Safari/537.36 Edg/125.0.0.0" etag="BB7DHPQRwYilir7bxMD-" version="24.4.4" type="github">
  <diagram name="Page-1" id="2YBvvXClWsGukQMizWep">
    <mxGraphModel dx="1188" dy="654" grid="1" gridSize="10" guides="1" tooltips="1" connect="1" arrows="1" fold="1" page="1" pageScale="1" pageWidth="850" pageHeight="1100" math="0" shadow="0">
      <root>
        <mxCell id="0" />
        <mxCell id="1" parent="0" />
        <mxCell id="M8Zi8qg0nQ7rm2d8xf9M-1" value="my.NRW" style="shape=umlLifeline;perimeter=lifelinePerimeter;whiteSpace=wrap;html=1;container=0;dropTarget=0;collapsible=0;recursiveResize=0;outlineConnect=0;portConstraint=eastwest;newEdgeStyle={&quot;edgeStyle&quot;:&quot;elbowEdgeStyle&quot;,&quot;elbow&quot;:&quot;vertical&quot;,&quot;curved&quot;:0,&quot;rounded&quot;:0};" parent="1" vertex="1">
          <mxGeometry x="200" y="20" width="100" height="700" as="geometry" />
        </mxCell>
        <mxCell id="M8Zi8qg0nQ7rm2d8xf9M-2" value="" style="html=1;points=[];perimeter=orthogonalPerimeter;outlineConnect=0;targetShapes=umlLifeline;portConstraint=eastwest;newEdgeStyle={&quot;edgeStyle&quot;:&quot;elbowEdgeStyle&quot;,&quot;elbow&quot;:&quot;vertical&quot;,&quot;curved&quot;:0,&quot;rounded&quot;:0};" parent="M8Zi8qg0nQ7rm2d8xf9M-1" vertex="1">
          <mxGeometry x="45" y="70" width="10" height="80" as="geometry" />
        </mxCell>
        <mxCell id="M8Zi8qg0nQ7rm2d8xf9M-3" value="Bes01/A01 wird angestoßen" style="html=1;verticalAlign=bottom;startArrow=oval;endArrow=block;startSize=8;edgeStyle=elbowEdgeStyle;elbow=vertical;curved=0;rounded=0;" parent="M8Zi8qg0nQ7rm2d8xf9M-1" target="M8Zi8qg0nQ7rm2d8xf9M-2" edge="1">
          <mxGeometry relative="1" as="geometry">
            <mxPoint x="-120" y="70" as="sourcePoint" />
            <mxPoint x="20" y="70" as="targetPoint" />
          </mxGeometry>
        </mxCell>
        <mxCell id="M8Zi8qg0nQ7rm2d8xf9M-17" value="" style="html=1;points=[[0,0,0,0,5],[0,1,0,0,-5],[1,0,0,0,5],[1,1,0,0,-5]];perimeter=orthogonalPerimeter;outlineConnect=0;targetShapes=umlLifeline;portConstraint=eastwest;newEdgeStyle={&quot;curved&quot;:0,&quot;rounded&quot;:0};" parent="M8Zi8qg0nQ7rm2d8xf9M-1" vertex="1">
          <mxGeometry x="51" y="100" width="10" height="40" as="geometry" />
        </mxCell>
        <mxCell id="M8Zi8qg0nQ7rm2d8xf9M-18" value="Freigabe in Z_SHOW_XML" style="html=1;align=left;spacingLeft=2;endArrow=block;rounded=0;edgeStyle=orthogonalEdgeStyle;curved=0;rounded=0;" parent="M8Zi8qg0nQ7rm2d8xf9M-1" target="M8Zi8qg0nQ7rm2d8xf9M-17" edge="1">
          <mxGeometry relative="1" as="geometry">
            <mxPoint x="56" y="80" as="sourcePoint" />
            <Array as="points">
              <mxPoint x="86" y="110" />
            </Array>
          </mxGeometry>
        </mxCell>
        <mxCell id="tUid-xeWfYrrTR9v-4vQ-11" value="" style="html=1;points=[[0,0,0,0,5],[0,1,0,0,-5],[1,0,0,0,5],[1,1,0,0,-5]];perimeter=orthogonalPerimeter;outlineConnect=0;targetShapes=umlLifeline;portConstraint=eastwest;newEdgeStyle={&quot;curved&quot;:0,&quot;rounded&quot;:0};" vertex="1" parent="M8Zi8qg0nQ7rm2d8xf9M-1">
          <mxGeometry x="45" y="260" width="10" height="60" as="geometry" />
        </mxCell>
        <mxCell id="M8Zi8qg0nQ7rm2d8xf9M-5" value="NRWave" style="shape=umlLifeline;perimeter=lifelinePerimeter;whiteSpace=wrap;html=1;container=0;dropTarget=0;collapsible=0;recursiveResize=0;outlineConnect=0;portConstraint=eastwest;newEdgeStyle={&quot;edgeStyle&quot;:&quot;elbowEdgeStyle&quot;,&quot;elbow&quot;:&quot;vertical&quot;,&quot;curved&quot;:0,&quot;rounded&quot;:0};" parent="1" vertex="1">
          <mxGeometry x="620" y="20" width="100" height="700" as="geometry" />
        </mxCell>
        <mxCell id="M8Zi8qg0nQ7rm2d8xf9M-13" value="" style="html=1;points=[];perimeter=orthogonalPerimeter;outlineConnect=0;targetShapes=umlLifeline;portConstraint=eastwest;newEdgeStyle={&quot;edgeStyle&quot;:&quot;elbowEdgeStyle&quot;,&quot;elbow&quot;:&quot;vertical&quot;,&quot;curved&quot;:0,&quot;rounded&quot;:0};" parent="M8Zi8qg0nQ7rm2d8xf9M-5" vertex="1">
          <mxGeometry x="45" y="150" width="10" height="110" as="geometry" />
        </mxCell>
        <mxCell id="M8Zi8qg0nQ7rm2d8xf9M-19" value="" style="html=1;points=[[0,0,0,0,5],[0,1,0,0,-5],[1,0,0,0,5],[1,1,0,0,-5]];perimeter=orthogonalPerimeter;outlineConnect=0;targetShapes=umlLifeline;portConstraint=eastwest;newEdgeStyle={&quot;curved&quot;:0,&quot;rounded&quot;:0};" parent="M8Zi8qg0nQ7rm2d8xf9M-5" vertex="1">
          <mxGeometry x="49.97000000000003" y="180" width="10" height="40" as="geometry" />
        </mxCell>
        <mxCell id="M8Zi8qg0nQ7rm2d8xf9M-20" value="Verarbeitung XML Datei" style="html=1;align=left;spacingLeft=2;endArrow=block;rounded=0;edgeStyle=orthogonalEdgeStyle;curved=0;rounded=0;" parent="M8Zi8qg0nQ7rm2d8xf9M-5" target="M8Zi8qg0nQ7rm2d8xf9M-19" edge="1">
          <mxGeometry relative="1" as="geometry">
            <mxPoint x="54.97000000000003" y="160" as="sourcePoint" />
            <Array as="points">
              <mxPoint x="84.97000000000003" y="190" />
            </Array>
          </mxGeometry>
        </mxCell>
        <mxCell id="M8Zi8qg0nQ7rm2d8xf9M-12" value="ÄM in XML" style="html=1;verticalAlign=bottom;endArrow=block;edgeStyle=elbowEdgeStyle;elbow=vertical;curved=0;rounded=0;" parent="1" target="M8Zi8qg0nQ7rm2d8xf9M-13" edge="1">
          <mxGeometry x="-0.0133" relative="1" as="geometry">
            <mxPoint x="255" y="170" as="sourcePoint" />
            <Array as="points">
              <mxPoint x="340" y="170" />
            </Array>
            <mxPoint x="620" y="170" as="targetPoint" />
            <mxPoint as="offset" />
          </mxGeometry>
        </mxCell>
        <mxCell id="M8Zi8qg0nQ7rm2d8xf9M-24" value="alt" style="shape=umlFrame;whiteSpace=wrap;html=1;pointerEvents=0;" parent="1" vertex="1">
          <mxGeometry x="100" y="250" width="740" height="180" as="geometry" />
        </mxCell>
        <mxCell id="tUid-xeWfYrrTR9v-4vQ-3" value="Übermittlung LBV-PersNr" style="html=1;verticalAlign=bottom;endArrow=block;curved=0;rounded=0;" edge="1" parent="1">
          <mxGeometry width="80" relative="1" as="geometry">
            <mxPoint x="665" y="280" as="sourcePoint" />
            <mxPoint x="255" y="280" as="targetPoint" />
          </mxGeometry>
        </mxCell>
        <mxCell id="tUid-xeWfYrrTR9v-4vQ-6" value="[true]" style="text;html=1;align=center;verticalAlign=middle;whiteSpace=wrap;rounded=0;" vertex="1" parent="1">
          <mxGeometry x="100" y="280" width="50" height="30" as="geometry" />
        </mxCell>
        <mxCell id="tUid-xeWfYrrTR9v-4vQ-14" value="[false]" style="text;html=1;align=center;verticalAlign=middle;whiteSpace=wrap;rounded=0;" vertex="1" parent="1">
          <mxGeometry x="100" y="345" width="50" height="30" as="geometry" />
        </mxCell>
        <mxCell id="tUid-xeWfYrrTR9v-4vQ-17" value="FuBa" style="html=1;verticalAlign=bottom;endArrow=block;curved=0;rounded=0;" edge="1" parent="1">
          <mxGeometry x="-0.0013" width="80" relative="1" as="geometry">
            <mxPoint x="620" y="460" as="sourcePoint" />
            <mxPoint x="310" y="460" as="targetPoint" />
            <mxPoint as="offset" />
          </mxGeometry>
        </mxCell>
        <mxCell id="tUid-xeWfYrrTR9v-4vQ-22" value="" style="endArrow=none;dashed=1;html=1;rounded=0;exitX=0.023;exitY=-0.161;exitDx=0;exitDy=0;exitPerimeter=0;entryX=0.999;entryY=0.496;entryDx=0;entryDy=0;entryPerimeter=0;" edge="1" parent="1" source="tUid-xeWfYrrTR9v-4vQ-14" target="M8Zi8qg0nQ7rm2d8xf9M-24">
          <mxGeometry width="50" height="50" relative="1" as="geometry">
            <mxPoint x="320" y="390" as="sourcePoint" />
            <mxPoint x="840" y="330" as="targetPoint" />
          </mxGeometry>
        </mxCell>
        <mxCell id="tUid-xeWfYrrTR9v-4vQ-28" value="" style="html=1;points=[[0,0,0,0,5],[0,1,0,0,-5],[1,0,0,0,5],[1,1,0,0,-5]];perimeter=orthogonalPerimeter;outlineConnect=0;targetShapes=umlLifeline;portConstraint=eastwest;newEdgeStyle={&quot;curved&quot;:0,&quot;rounded&quot;:0};" vertex="1" parent="1">
          <mxGeometry x="665" y="340" width="10" height="60" as="geometry" />
        </mxCell>
        <mxCell id="tUid-xeWfYrrTR9v-4vQ-29" value="" style="html=1;points=[[0,0,0,0,5],[0,1,0,0,-5],[1,0,0,0,5],[1,1,0,0,-5]];perimeter=orthogonalPerimeter;outlineConnect=0;targetShapes=umlLifeline;portConstraint=eastwest;newEdgeStyle={&quot;curved&quot;:0,&quot;rounded&quot;:0};" vertex="1" parent="1">
          <mxGeometry x="670" y="370" width="10" height="20" as="geometry" />
        </mxCell>
        <mxCell id="tUid-xeWfYrrTR9v-4vQ-30" value="Übermittlung LBV-PersNr&lt;div&gt;fehlgeschlagen&lt;/div&gt;" style="html=1;align=left;spacingLeft=2;endArrow=block;rounded=0;edgeStyle=orthogonalEdgeStyle;curved=0;rounded=0;" edge="1" parent="1" target="tUid-xeWfYrrTR9v-4vQ-29">
          <mxGeometry relative="1" as="geometry">
            <mxPoint x="675" y="350" as="sourcePoint" />
            <Array as="points">
              <mxPoint x="705" y="380" />
            </Array>
          </mxGeometry>
        </mxCell>
      </root>
    </mxGraphModel>
  </diagram>
</mxfile>
